<mxfile host="Electron" agent="Mozilla/5.0 (Windows NT 10.0; Win64; x64) AppleWebKit/537.36 (KHTML, like Gecko) draw.io/27.0.9 Chrome/134.0.6998.205 Electron/35.4.0 Safari/537.36" version="27.0.9">
  <diagram name="Страница — 1" id="YpW8XnZa8_BKUwSIumCt">
    <mxGraphModel dx="2214" dy="2112" grid="1" gridSize="10" guides="1" tooltips="1" connect="1" arrows="1" fold="1" page="1" pageScale="1" pageWidth="827" pageHeight="1169" math="0" shadow="0">
      <root>
        <mxCell id="0" />
        <mxCell id="1" parent="0" />
        <mxCell id="vQYJB-04x1q711Oz3-4X-6" value="" style="edgeStyle=orthogonalEdgeStyle;rounded=0;orthogonalLoop=1;jettySize=auto;html=1;" edge="1" parent="1" source="vQYJB-04x1q711Oz3-4X-1" target="vQYJB-04x1q711Oz3-4X-5">
          <mxGeometry relative="1" as="geometry">
            <Array as="points">
              <mxPoint x="30" y="340" />
              <mxPoint x="30" y="150" />
            </Array>
          </mxGeometry>
        </mxCell>
        <mxCell id="vQYJB-04x1q711Oz3-4X-9" value="" style="edgeStyle=orthogonalEdgeStyle;rounded=0;orthogonalLoop=1;jettySize=auto;html=1;" edge="1" parent="1" source="vQYJB-04x1q711Oz3-4X-1" target="vQYJB-04x1q711Oz3-4X-8">
          <mxGeometry relative="1" as="geometry">
            <Array as="points">
              <mxPoint x="120" y="400" />
            </Array>
          </mxGeometry>
        </mxCell>
        <mxCell id="vQYJB-04x1q711Oz3-4X-14" value="" style="edgeStyle=orthogonalEdgeStyle;rounded=0;orthogonalLoop=1;jettySize=auto;html=1;" edge="1" parent="1" source="vQYJB-04x1q711Oz3-4X-1" target="vQYJB-04x1q711Oz3-4X-13">
          <mxGeometry relative="1" as="geometry">
            <Array as="points">
              <mxPoint x="20" y="370" />
              <mxPoint x="20" y="300" />
            </Array>
          </mxGeometry>
        </mxCell>
        <mxCell id="vQYJB-04x1q711Oz3-4X-20" value="" style="edgeStyle=orthogonalEdgeStyle;rounded=0;orthogonalLoop=1;jettySize=auto;html=1;" edge="1" parent="1" source="vQYJB-04x1q711Oz3-4X-1" target="vQYJB-04x1q711Oz3-4X-19">
          <mxGeometry relative="1" as="geometry">
            <Array as="points">
              <mxPoint x="20" y="380" />
              <mxPoint x="20" y="410" />
            </Array>
          </mxGeometry>
        </mxCell>
        <mxCell id="vQYJB-04x1q711Oz3-4X-1" value="User" style="swimlane;childLayout=stackLayout;horizontal=1;startSize=50;horizontalStack=0;rounded=1;fontSize=14;fontStyle=0;strokeWidth=2;resizeParent=0;resizeLast=1;shadow=0;dashed=0;align=center;arcSize=4;whiteSpace=wrap;html=1;" vertex="1" parent="1">
          <mxGeometry x="40" y="200" width="160" height="200" as="geometry" />
        </mxCell>
        <mxCell id="vQYJB-04x1q711Oz3-4X-2" value="id&lt;div&gt;username&lt;/div&gt;&lt;div&gt;creationDate&lt;/div&gt;&lt;div&gt;description&lt;/div&gt;&lt;div&gt;currentTheme&lt;/div&gt;&lt;div&gt;experience&lt;/div&gt;&lt;div&gt;bestResults&lt;/div&gt;&lt;div&gt;&lt;font&gt;achievement&lt;/font&gt;&lt;/div&gt;&lt;div&gt;&lt;font&gt;activityData&lt;/font&gt;&lt;/div&gt;" style="align=left;strokeColor=none;fillColor=none;spacingLeft=4;spacingRight=4;fontSize=12;verticalAlign=top;resizable=0;rotatable=0;part=1;html=1;whiteSpace=wrap;" vertex="1" parent="vQYJB-04x1q711Oz3-4X-1">
          <mxGeometry y="50" width="160" height="150" as="geometry" />
        </mxCell>
        <mxCell id="vQYJB-04x1q711Oz3-4X-3" value="&lt;div&gt;&lt;ul style=&quot;padding-left: 20px;&quot;&gt;&lt;li&gt;Пользователю добавить поле avatar&lt;/li&gt;&lt;/ul&gt;&lt;/div&gt;" style="shape=note;size=20;whiteSpace=wrap;html=1;align=center;" vertex="1" parent="1">
          <mxGeometry x="40" y="-20" width="320" height="100" as="geometry" />
        </mxCell>
        <mxCell id="vQYJB-04x1q711Oz3-4X-5" value="experience {&lt;div&gt;&amp;nbsp; id,&lt;br&gt;&lt;div&gt;&amp;nbsp; level,&lt;/div&gt;&lt;div&gt;&amp;nbsp; progress&lt;/div&gt;&lt;div&gt;}&lt;/div&gt;&lt;/div&gt;" style="whiteSpace=wrap;html=1;fontSize=14;fontStyle=0;startSize=50;horizontal=1;rounded=1;strokeWidth=2;shadow=0;dashed=0;arcSize=4;align=left;resizable=1;resizeWidth=0;" vertex="1" parent="1">
          <mxGeometry x="-160" y="110" width="160" height="80" as="geometry" />
        </mxCell>
        <mxCell id="vQYJB-04x1q711Oz3-4X-11" value="" style="edgeStyle=orthogonalEdgeStyle;rounded=0;orthogonalLoop=1;jettySize=auto;html=1;" edge="1" parent="1" source="vQYJB-04x1q711Oz3-4X-8" target="vQYJB-04x1q711Oz3-4X-10">
          <mxGeometry relative="1" as="geometry" />
        </mxCell>
        <mxCell id="vQYJB-04x1q711Oz3-4X-8" value="bestResults {&lt;div&gt;&amp;nbsp; 15seconds: resultMetrics,&lt;/div&gt;&lt;div&gt;&amp;nbsp; 30seocnds:&amp;nbsp;&lt;span style=&quot;background-color: transparent; color: light-dark(rgb(0, 0, 0), rgb(255, 255, 255));&quot;&gt;resultMetrics,&lt;/span&gt;&lt;/div&gt;&lt;div&gt;&lt;span style=&quot;background-color: transparent; color: light-dark(rgb(0, 0, 0), rgb(255, 255, 255));&quot;&gt;&amp;nbsp; 60seconds:&amp;nbsp;&lt;/span&gt;&lt;span style=&quot;background-color: transparent; color: light-dark(rgb(0, 0, 0), rgb(255, 255, 255));&quot;&gt;resultMetrics,&lt;/span&gt;&lt;/div&gt;&lt;div&gt;&lt;span style=&quot;background-color: transparent; color: light-dark(rgb(0, 0, 0), rgb(255, 255, 255));&quot;&gt;&amp;nbsp; 120seconds:&amp;nbsp;&lt;/span&gt;&lt;span style=&quot;background-color: transparent; color: light-dark(rgb(0, 0, 0), rgb(255, 255, 255));&quot;&gt;resultMetrics,&lt;/span&gt;&lt;/div&gt;&lt;div&gt;&lt;span style=&quot;background-color: transparent; color: light-dark(rgb(0, 0, 0), rgb(255, 255, 255));&quot;&gt;&amp;nbsp; 10words:&amp;nbsp;&lt;/span&gt;&lt;span style=&quot;background-color: transparent; color: light-dark(rgb(0, 0, 0), rgb(255, 255, 255));&quot;&gt;resultMetrics,&lt;/span&gt;&lt;/div&gt;&lt;div&gt;&lt;span style=&quot;background-color: transparent; color: light-dark(rgb(0, 0, 0), rgb(255, 255, 255));&quot;&gt;&amp;nbsp; 20words:&amp;nbsp;&lt;/span&gt;&lt;span style=&quot;background-color: transparent; color: light-dark(rgb(0, 0, 0), rgb(255, 255, 255));&quot;&gt;resultMetrics&lt;/span&gt;&lt;/div&gt;&lt;div&gt;&lt;span style=&quot;background-color: transparent; color: light-dark(rgb(0, 0, 0), rgb(255, 255, 255));&quot;&gt;&amp;nbsp; 40words:&amp;nbsp;&lt;/span&gt;&lt;span style=&quot;background-color: transparent; color: light-dark(rgb(0, 0, 0), rgb(255, 255, 255));&quot;&gt;resultMetrics,&lt;/span&gt;&lt;/div&gt;&lt;div&gt;&lt;span style=&quot;background-color: transparent; color: light-dark(rgb(0, 0, 0), rgb(255, 255, 255));&quot;&gt;&amp;nbsp; 80words:&amp;nbsp;&lt;/span&gt;&lt;span style=&quot;background-color: transparent; color: light-dark(rgb(0, 0, 0), rgb(255, 255, 255));&quot;&gt;resultMetrics&lt;/span&gt;&lt;/div&gt;&lt;div&gt;}&lt;/div&gt;" style="whiteSpace=wrap;html=1;fontSize=14;fontStyle=0;startSize=50;horizontal=1;rounded=1;strokeWidth=2;shadow=0;dashed=0;arcSize=4;align=left;" vertex="1" parent="1">
          <mxGeometry x="20" y="440" width="200" height="170" as="geometry" />
        </mxCell>
        <mxCell id="vQYJB-04x1q711Oz3-4X-10" value="resultMetrics {&lt;div&gt;&amp;nbsp; wpm,&lt;/div&gt;&lt;div&gt;&amp;nbsp; rawWpm,&lt;/div&gt;&lt;div&gt;&amp;nbsp; accurancy,&lt;/div&gt;&lt;div&gt;&amp;nbsp; consistency,&lt;/div&gt;&lt;div&gt;&amp;nbsp; date&lt;br&gt;&lt;div&gt;}&lt;/div&gt;&lt;/div&gt;" style="whiteSpace=wrap;html=1;fontSize=14;align=left;fontStyle=0;startSize=50;horizontal=1;rounded=1;strokeWidth=2;shadow=0;dashed=0;arcSize=4;" vertex="1" parent="1">
          <mxGeometry x="40" y="640" width="160" height="120" as="geometry" />
        </mxCell>
        <mxCell id="vQYJB-04x1q711Oz3-4X-12" style="edgeStyle=orthogonalEdgeStyle;rounded=0;orthogonalLoop=1;jettySize=auto;html=1;exitX=0.5;exitY=1;exitDx=0;exitDy=0;" edge="1" parent="1" source="vQYJB-04x1q711Oz3-4X-8" target="vQYJB-04x1q711Oz3-4X-8">
          <mxGeometry relative="1" as="geometry" />
        </mxCell>
        <mxCell id="vQYJB-04x1q711Oz3-4X-13" value="achievement {&lt;div&gt;&amp;nbsp; id,&lt;br&gt;&lt;div&gt;&amp;nbsp; completionDate&lt;/div&gt;&lt;div&gt;}&lt;/div&gt;&lt;/div&gt;" style="whiteSpace=wrap;html=1;fontSize=14;fontStyle=0;startSize=50;horizontal=1;rounded=1;strokeWidth=2;shadow=0;dashed=0;arcSize=4;align=left;" vertex="1" parent="1">
          <mxGeometry x="-160" y="265" width="160" height="70" as="geometry" />
        </mxCell>
        <mxCell id="vQYJB-04x1q711Oz3-4X-15" style="edgeStyle=orthogonalEdgeStyle;rounded=0;orthogonalLoop=1;jettySize=auto;html=1;exitX=0.5;exitY=1;exitDx=0;exitDy=0;" edge="1" parent="1" source="vQYJB-04x1q711Oz3-4X-13" target="vQYJB-04x1q711Oz3-4X-13">
          <mxGeometry relative="1" as="geometry" />
        </mxCell>
        <mxCell id="vQYJB-04x1q711Oz3-4X-16" value="Achievement" style="swimlane;childLayout=stackLayout;horizontal=1;startSize=50;horizontalStack=0;rounded=1;fontSize=14;fontStyle=0;strokeWidth=2;resizeParent=0;resizeLast=1;shadow=0;dashed=0;align=center;arcSize=4;whiteSpace=wrap;html=1;" vertex="1" parent="1">
          <mxGeometry x="400" y="240" width="160" height="120" as="geometry" />
        </mxCell>
        <mxCell id="vQYJB-04x1q711Oz3-4X-17" value="id&lt;div&gt;title,&lt;/div&gt;&lt;div&gt;description&lt;/div&gt;&lt;div&gt;experienceGained&lt;/div&gt;" style="align=left;strokeColor=none;fillColor=none;spacingLeft=4;spacingRight=4;fontSize=12;verticalAlign=top;resizable=0;rotatable=0;part=1;html=1;whiteSpace=wrap;" vertex="1" parent="vQYJB-04x1q711Oz3-4X-16">
          <mxGeometry y="50" width="160" height="70" as="geometry" />
        </mxCell>
        <mxCell id="vQYJB-04x1q711Oz3-4X-18" value="" style="edgeStyle=entityRelationEdgeStyle;fontSize=12;html=1;endArrow=ERoneToMany;rounded=0;exitX=0.996;exitY=0.34;exitDx=0;exitDy=0;exitPerimeter=0;" edge="1" parent="1" source="vQYJB-04x1q711Oz3-4X-2" target="vQYJB-04x1q711Oz3-4X-17">
          <mxGeometry width="100" height="100" relative="1" as="geometry">
            <mxPoint x="180" y="420" as="sourcePoint" />
            <mxPoint x="280" y="320" as="targetPoint" />
          </mxGeometry>
        </mxCell>
        <mxCell id="vQYJB-04x1q711Oz3-4X-19" value="activityData [&lt;div&gt;&amp;nbsp; {&lt;/div&gt;&lt;div&gt;&lt;span style=&quot;white-space: pre;&quot;&gt;&#x9;&lt;/span&gt;count,&lt;br&gt;&lt;/div&gt;&lt;div&gt;&amp;nbsp; &amp;nbsp; &amp;nbsp; &amp;nbsp; date:&amp;nbsp;&lt;span style=&quot;background-color: rgb(250, 244, 242); white-space: pre;&quot;&gt;&lt;font style=&quot;color: rgb(0, 0, 0);&quot;&gt;2022-06-02&lt;/font&gt;&lt;/span&gt;&lt;/div&gt;&lt;div&gt;&amp;nbsp; }&lt;/div&gt;&lt;div&gt;]&lt;/div&gt;" style="whiteSpace=wrap;html=1;fontSize=14;fontStyle=0;startSize=50;horizontal=1;rounded=1;strokeWidth=2;shadow=0;dashed=0;arcSize=4;align=left;" vertex="1" parent="1">
          <mxGeometry x="-200" y="360" width="200" height="100" as="geometry" />
        </mxCell>
      </root>
    </mxGraphModel>
  </diagram>
</mxfile>
